<svg width="32" height="32" viewBox="0 0 32 32" fill="none" xmlns="http://www.w3.org/2000/svg">
<path d="M24 5.3335H8.00004C6.52728 5.3335 5.33337 6.5274 5.33337 8.00016V24.0002C5.33337 25.4729 6.52728 26.6668 8.00004 26.6668H24C25.4728 26.6668 26.6667 25.4729 26.6667 24.0002V8.00016C26.6667 6.5274 25.4728 5.3335 24 5.3335Z" stroke="#007AFF" stroke-width="2.66667" stroke-linecap="round" stroke-linejoin="round"/>
<path d="M18.6667 12H13.3333C12.597 12 12 12.597 12 13.3333V18.6667C12 19.403 12.597 20 13.3333 20H18.6667C19.403 20 20 19.403 20 18.6667V13.3333C20 12.597 19.403 12 18.6667 12Z" stroke="#007AFF" stroke-width="2.66667" stroke-linecap="round" stroke-linejoin="round"/>
<path d="M20 2.6665V5.33317" stroke="#007AFF" stroke-width="2.66667" stroke-linecap="round" stroke-linejoin="round"/>
<path d="M20 26.6665V29.3332" stroke="#007AFF" stroke-width="2.66667" stroke-linecap="round" stroke-linejoin="round"/>
<path d="M2.66663 20H5.33329" stroke="#007AFF" stroke-width="2.66667" stroke-linecap="round" stroke-linejoin="round"/>
<path d="M2.66663 12H5.33329" stroke="#007AFF" stroke-width="2.66667" stroke-linecap="round" stroke-linejoin="round"/>
<path d="M26.6666 20H29.3333" stroke="#007AFF" stroke-width="2.66667" stroke-linecap="round" stroke-linejoin="round"/>
<path d="M26.6666 12H29.3333" stroke="#007AFF" stroke-width="2.66667" stroke-linecap="round" stroke-linejoin="round"/>
<path d="M12 2.6665V5.33317" stroke="#007AFF" stroke-width="2.66667" stroke-linecap="round" stroke-linejoin="round"/>
<path d="M12 26.6665V29.3332" stroke="#007AFF" stroke-width="2.66667" stroke-linecap="round" stroke-linejoin="round"/>
</svg>
