<svg width="231" height="26" viewBox="0 0 231 26" fill="none" xmlns="http://www.w3.org/2000/svg">
<path d="M13.3833 2.85246H15.8529V16.3552C15.8529 17.7493 15.5243 18.994 14.867 20.0894C14.2165 21.1781 13.297 22.0378 12.1087 22.6684C10.9204 23.2924 9.52635 23.6044 7.92647 23.6044C6.32659 23.6044 4.9325 23.2924 3.74421 22.6684C2.55592 22.0378 1.63316 21.1781 0.97595 20.0894C0.325376 18.994 8.90606e-05 17.7493 8.90606e-05 16.3552V2.85246H2.46962V16.156C2.46962 17.1518 2.68869 18.0381 3.12683 18.8148C3.56497 19.5848 4.18899 20.1923 4.99889 20.637C5.81543 21.0752 6.79129 21.2942 7.92647 21.2942C9.06166 21.2942 10.0375 21.0752 10.8541 20.637C11.6706 20.1923 12.2946 19.5848 12.7261 18.8148C13.1643 18.0381 13.3833 17.1518 13.3833 16.156V2.85246ZM31.9371 7.95083C31.8176 6.94178 31.333 6.15844 30.4833 5.6008C29.6336 5.04316 28.5913 4.76435 27.3566 4.76435C26.4537 4.76435 25.6637 4.91039 24.9866 5.20249C24.3161 5.49458 23.7917 5.89621 23.4133 6.40738C23.0415 6.91854 22.8557 7.49941 22.8557 8.14999C22.8557 8.69435 22.9851 9.16236 23.244 9.55403C23.5096 9.93907 23.8481 10.261 24.2597 10.5199C24.6713 10.7722 25.1028 10.9813 25.5542 11.1473C26.0056 11.3066 26.4205 11.4361 26.7989 11.5356L28.8701 12.0933C29.4012 12.2327 29.9921 12.4252 30.6426 12.6708C31.2998 12.9164 31.9272 13.2517 32.5247 13.6765C33.1288 14.0948 33.6266 14.6325 34.0183 15.2897C34.41 15.9469 34.6058 16.7535 34.6058 17.7094C34.6058 18.8114 34.317 19.8072 33.7395 20.6968C33.1686 21.5863 32.3321 22.2933 31.2301 22.8178C30.1348 23.3422 28.8038 23.6044 27.2371 23.6044C25.7766 23.6044 24.512 23.3688 23.4432 22.8974C22.381 22.4261 21.5446 21.7689 20.9338 20.9258C20.3297 20.0827 19.9878 19.1035 19.9082 17.9883H22.4573C22.5237 18.7583 22.7826 19.3956 23.2341 19.9002C23.6921 20.398 24.2697 20.7698 24.9667 21.0154C25.6704 21.2544 26.4272 21.3739 27.2371 21.3739C28.1797 21.3739 29.0262 21.2212 29.7763 20.9158C30.5265 20.6038 31.1206 20.1723 31.5587 19.6213C31.9969 19.0637 32.216 18.4131 32.216 17.6696C32.216 16.9925 32.0268 16.4415 31.6484 16.0166C31.27 15.5918 30.7721 15.2466 30.1547 14.981C29.5373 14.7155 28.8701 14.4831 28.1532 14.284L25.6438 13.567C24.0506 13.109 22.7893 12.4551 21.8599 11.6053C20.9305 10.7556 20.4658 9.64365 20.4658 8.26948C20.4658 7.12766 20.7745 6.13188 21.3919 5.28215C22.0159 4.42578 22.8523 3.76193 23.9012 3.2906C24.9567 2.81262 26.1351 2.57364 27.4362 2.57364C28.7507 2.57364 29.919 2.8093 30.9414 3.28064C31.9637 3.74533 32.7736 4.38263 33.3711 5.19253C33.9752 6.00243 34.2938 6.92186 34.327 7.95083H31.9371ZM38.6661 23.246V2.85246H45.7959C47.2165 2.85246 48.3882 3.09808 49.311 3.58933C50.2337 4.07394 50.9208 4.72784 51.3722 5.55101C51.8236 6.36755 52.0493 7.2737 52.0493 8.26948C52.0493 9.14576 51.8933 9.86936 51.5813 10.4403C51.276 11.0112 50.871 11.4626 50.3665 11.7945C49.8686 12.1265 49.3276 12.3721 48.7434 12.5314V12.7306C49.3674 12.7704 49.9947 12.9895 50.6254 13.3878C51.256 13.7861 51.7838 14.357 52.2087 15.1005C52.6335 15.844 52.846 16.7535 52.846 17.8289C52.846 18.8513 52.6136 19.7707 52.1489 20.5872C51.6842 21.4038 50.9507 22.051 49.9483 22.529C48.9458 23.007 47.6414 23.246 46.0349 23.246H38.6661ZM41.1356 21.0553H46.0349C47.648 21.0553 48.7932 20.7432 49.4703 20.1192C50.154 19.4886 50.4959 18.7251 50.4959 17.8289C50.4959 17.1385 50.32 16.5012 49.9682 15.917C49.6163 15.3262 49.1151 14.8549 48.4645 14.503C47.814 14.1446 47.0439 13.9653 46.1543 13.9653H41.1356V21.0553ZM41.1356 11.8144H45.7162C46.4597 11.8144 47.1302 11.6684 47.7277 11.3763C48.3318 11.0842 48.8098 10.6726 49.1616 10.1415C49.5201 9.61046 49.6993 8.98644 49.6993 8.26948C49.6993 7.37328 49.3873 6.61317 48.7633 5.98915C48.1393 5.35849 47.1501 5.04316 45.7959 5.04316H41.1356V11.8144ZM65.3479 11.9539V14.1446H56.4258V11.9539H65.3479ZM86.212 9.22543H83.7424C83.5964 8.51511 83.3408 7.89109 82.9757 7.35337C82.6172 6.81565 82.1791 6.36423 81.6613 5.99911C81.1501 5.62735 80.5825 5.34854 79.9585 5.16266C79.3345 4.97678 78.6839 4.88384 78.0068 4.88384C76.772 4.88384 75.6534 5.19585 74.651 5.81987C73.6552 6.44389 72.8619 7.36333 72.2711 8.57817C71.6869 9.79302 71.3948 11.2834 71.3948 13.0492C71.3948 14.8151 71.6869 16.3054 72.2711 17.5202C72.8619 18.7351 73.6552 19.6545 74.651 20.2786C75.6534 20.9026 76.772 21.2146 78.0068 21.2146C78.6839 21.2146 79.3345 21.1216 79.9585 20.9358C80.5825 20.7499 81.1501 20.4744 81.6613 20.1093C82.1791 19.7375 82.6172 19.2828 82.9757 18.7451C83.3408 18.2007 83.5964 17.5767 83.7424 16.873H86.212C86.0261 17.9152 85.6875 18.848 85.1963 19.6711C84.705 20.4943 84.0943 21.1947 83.364 21.7722C82.6338 22.3431 81.8139 22.778 80.9045 23.0767C80.0016 23.3754 79.0357 23.5248 78.0068 23.5248C76.2675 23.5248 74.7207 23.0999 73.3664 22.2502C72.0122 21.4005 70.9467 20.1922 70.17 18.6256C69.3933 17.0589 69.0049 15.2001 69.0049 13.0492C69.0049 10.8983 69.3933 9.03955 70.17 7.47286C70.9467 5.90617 72.0122 4.69796 73.3664 3.84823C74.7207 2.9985 76.2675 2.57364 78.0068 2.57364C79.0357 2.57364 80.0016 2.723 80.9045 3.02174C81.8139 3.32047 82.6338 3.75861 83.364 4.33616C84.0943 4.90707 84.705 5.60412 85.1963 6.42729C85.6875 7.24383 86.0261 8.17654 86.212 9.22543ZM107.313 13.7961H109.612V17.6097H107.313V13.7961ZM97.0216 12.5623H119.931V14.4411H97.0216V12.5623ZM107.313 -8.7628e-05H109.612V3.42092H107.313V-8.7628e-05ZM107.201 3.70134H109.248V4.09391C109.248 5.14078 108.976 6.07548 108.434 6.89802C107.911 7.72056 107.172 8.43093 106.219 9.02914C105.284 9.62735 104.2 10.1134 102.966 10.4873C101.751 10.8425 100.452 11.0948 99.0686 11.2444L98.3395 9.44976C99.5734 9.33759 100.723 9.13196 101.789 8.83285C102.854 8.53375 103.789 8.15987 104.593 7.71121C105.415 7.24386 106.051 6.71108 106.499 6.11287C106.967 5.49596 107.201 4.82298 107.201 4.09391V3.70134ZM107.705 3.70134H109.724V4.09391C109.724 4.82298 109.949 5.49596 110.397 6.11287C110.865 6.71108 111.5 7.24386 112.304 7.71121C113.127 8.15987 114.071 8.53375 115.136 8.83285C116.202 9.13196 117.351 9.33759 118.585 9.44976L117.884 11.2444C116.501 11.0948 115.192 10.8425 113.958 10.4873C112.743 10.1134 111.659 9.62735 110.706 9.02914C109.771 8.43093 109.033 7.72056 108.49 6.89802C107.967 6.07548 107.705 5.14078 107.705 4.09391V3.70134ZM99.3771 2.52361H117.604V4.40236H99.3771V2.52361ZM108.462 16.9648C111.192 16.9648 113.313 17.3293 114.828 18.0584C116.361 18.7687 117.127 19.8063 117.127 21.1709C117.127 22.5356 116.361 23.5731 114.828 24.2835C113.313 25.0126 111.192 25.3771 108.462 25.3771C105.733 25.3771 103.602 25.0126 102.069 24.2835C100.536 23.5731 99.7696 22.5356 99.7696 21.1709C99.7696 19.8063 100.536 18.7687 102.069 18.0584C103.602 17.3293 105.733 16.9648 108.462 16.9648ZM108.462 18.7314C106.443 18.7314 104.882 18.9463 103.78 19.3763C102.677 19.7876 102.125 20.3858 102.125 21.1709C102.125 21.9561 102.677 22.5636 103.78 22.9936C104.882 23.4049 106.443 23.6105 108.462 23.6105C110.463 23.6105 112.014 23.4049 113.117 22.9936C114.239 22.5636 114.8 21.9561 114.8 21.1709C114.8 20.3858 114.239 19.7876 113.117 19.3763C112.014 18.9463 110.463 18.7314 108.462 18.7314ZM136.249 7.06626H142.67V8.97306H136.249V7.06626ZM141.352 0.0840362H143.68V18.6753H141.352V0.0840362ZM127.5 22.9656H144.381V24.8723H127.5V22.9656ZM127.5 17.0208H129.799V23.919H127.5V17.0208ZM129.267 3.22464H131.173V5.27164C131.173 6.80455 130.874 8.25334 130.276 9.618C129.697 10.964 128.874 12.1417 127.809 13.1512C126.743 14.142 125.509 14.9084 124.107 15.4505L122.901 13.5718C123.836 13.2353 124.687 12.7866 125.453 12.2258C126.238 11.665 126.921 11.0201 127.5 10.291C128.08 9.56192 128.519 8.76742 128.818 7.9075C129.117 7.04757 129.267 6.16895 129.267 5.27164V3.22464ZM129.715 3.22464H131.622V5.27164C131.622 6.35589 131.874 7.4121 132.379 8.44028C132.884 9.46845 133.604 10.3845 134.538 11.1883C135.473 11.9735 136.548 12.581 137.763 13.011L136.585 14.8617C135.202 14.3569 133.996 13.6279 132.968 12.6745C131.94 11.7024 131.136 10.5807 130.557 9.30955C129.996 8.03836 129.715 6.69238 129.715 5.27164V3.22464ZM123.63 2.13104H137.174V4.03783H123.63V2.13104ZM165.36 3.05639H167.576C167.576 4.70147 167.426 6.3185 167.127 7.9075C166.847 9.49649 166.351 11.0294 165.641 12.5062C164.93 13.9644 163.949 15.3384 162.696 16.6283C161.444 17.9182 159.864 19.0959 157.958 20.1614L156.64 18.507C158.341 17.5723 159.752 16.5441 160.874 15.4225C161.995 14.3009 162.883 13.1044 163.538 11.8332C164.211 10.5434 164.678 9.19739 164.94 7.79533C165.22 6.37458 165.36 4.91645 165.36 3.42092V3.05639ZM157.845 3.05639H166.23V4.96318H157.845V3.05639ZM165.08 8.91697V10.6836L156.948 11.4968L156.612 9.4778L165.08 8.91697ZM165.585 10.0667H171.417V11.9735H165.585V10.0667ZM175.82 0.0559955H178.063V25.4332H175.82V0.0559955ZM170.548 0.728981H172.735V24.1433H170.548V0.728981ZM200.718 0.0559955H203.045V25.4612H200.718V0.0559955ZM189.67 2.01887C190.922 2.01887 192.025 2.3834 192.979 3.11247C193.951 3.82285 194.708 4.84167 195.25 6.16895C195.811 7.49623 196.091 9.05718 196.091 10.8518C196.091 12.6464 195.811 14.2074 195.25 15.5347C194.708 16.8619 193.951 17.8901 192.979 18.6192C192.025 19.3483 190.922 19.7128 189.67 19.7128C188.417 19.7128 187.305 19.3483 186.333 18.6192C185.361 17.8901 184.594 16.8619 184.034 15.5347C183.491 14.2074 183.22 12.6464 183.22 10.8518C183.22 9.05718 183.491 7.49623 184.034 6.16895C184.594 4.84167 185.361 3.82285 186.333 3.11247C187.305 2.3834 188.417 2.01887 189.67 2.01887ZM189.67 4.09391C188.829 4.09391 188.09 4.37432 187.455 4.93514C186.838 5.47727 186.352 6.26242 185.996 7.29059C185.641 8.30007 185.464 9.48714 185.464 10.8518C185.464 12.2165 185.641 13.4129 185.996 14.4411C186.352 15.4505 186.838 16.2357 187.455 16.7965C188.09 17.3573 188.829 17.6378 189.67 17.6378C190.492 17.6378 191.212 17.3573 191.829 16.7965C192.465 16.2357 192.96 15.4505 193.315 14.4411C193.67 13.4129 193.848 12.2165 193.848 10.8518C193.848 9.48714 193.67 8.30007 193.315 7.29059C192.96 6.26242 192.465 5.47727 191.829 4.93514C191.212 4.37432 190.492 4.09391 189.67 4.09391ZM211.119 0.504652H213.418V2.88814H225.7V0.504652H228V8.88893H211.119V0.504652ZM213.418 4.65473V7.06626H225.7V4.65473H213.418ZM208.091 11.0201H231V12.8708H208.091V11.0201ZM210.867 15.1701H228.056V20.8344H213.194V23.947H210.923V19.152H225.784V16.9367H210.867V15.1701ZM210.923 23.3301H228.813V25.1528H210.923V23.3301Z" fill="#A1A1A6"/>
</svg>
