<svg width="56" height="56" viewBox="0 0 56 56" fill="none" xmlns="http://www.w3.org/2000/svg">
<path d="M42.0002 9.33301H14.0002C11.4228 9.33301 9.3335 11.4223 9.3335 13.9997V41.9997C9.3335 44.577 11.4228 46.6663 14.0002 46.6663H42.0002C44.5775 46.6663 46.6668 44.577 46.6668 41.9997V13.9997C46.6668 11.4223 44.5775 9.33301 42.0002 9.33301Z" stroke="#007AFF" stroke-width="2.33333" stroke-linecap="round" stroke-linejoin="round"/>
<path d="M32.6667 21H23.3333C22.0447 21 21 22.0447 21 23.3333V32.6667C21 33.9553 22.0447 35 23.3333 35H32.6667C33.9553 35 35 33.9553 35 32.6667V23.3333C35 22.0447 33.9553 21 32.6667 21Z" stroke="#007AFF" stroke-width="2.33333" stroke-linecap="round" stroke-linejoin="round"/>
<path d="M35 4.66699V9.33366" stroke="#007AFF" stroke-width="2.33333" stroke-linecap="round" stroke-linejoin="round"/>
<path d="M35 46.667V51.3337" stroke="#007AFF" stroke-width="2.33333" stroke-linecap="round" stroke-linejoin="round"/>
<path d="M4.6665 35H9.33317" stroke="#007AFF" stroke-width="2.33333" stroke-linecap="round" stroke-linejoin="round"/>
<path d="M4.6665 21H9.33317" stroke="#007AFF" stroke-width="2.33333" stroke-linecap="round" stroke-linejoin="round"/>
<path d="M46.6665 35H51.3332" stroke="#007AFF" stroke-width="2.33333" stroke-linecap="round" stroke-linejoin="round"/>
<path d="M46.6665 21H51.3332" stroke="#007AFF" stroke-width="2.33333" stroke-linecap="round" stroke-linejoin="round"/>
<path d="M21 4.66699V9.33366" stroke="#007AFF" stroke-width="2.33333" stroke-linecap="round" stroke-linejoin="round"/>
<path d="M21 46.667V51.3337" stroke="#007AFF" stroke-width="2.33333" stroke-linecap="round" stroke-linejoin="round"/>
</svg>
