<svg width="20" height="20" viewBox="0 0 20 20" fill="none" xmlns="http://www.w3.org/2000/svg">
<g clip-path="url(#clip0_10_1320)">
<path d="M6.66659 18.3332C7.12682 18.3332 7.49992 17.9601 7.49992 17.4998C7.49992 17.0396 7.12682 16.6665 6.66659 16.6665C6.20635 16.6665 5.83325 17.0396 5.83325 17.4998C5.83325 17.9601 6.20635 18.3332 6.66659 18.3332Z" stroke="white" stroke-width="1.66667" stroke-linecap="round" stroke-linejoin="round"/>
<path d="M15.8333 18.3332C16.2936 18.3332 16.6667 17.9601 16.6667 17.4998C16.6667 17.0396 16.2936 16.6665 15.8333 16.6665C15.3731 16.6665 15 17.0396 15 17.4998C15 17.9601 15.3731 18.3332 15.8333 18.3332Z" stroke="white" stroke-width="1.66667" stroke-linecap="round" stroke-linejoin="round"/>
<path d="M1.70825 1.7085H3.37492L5.59159 12.0585C5.6729 12.4375 5.88381 12.7764 6.18801 13.0167C6.49221 13.257 6.87067 13.3838 7.25825 13.3752H15.4083C15.7876 13.3745 16.1553 13.2446 16.4508 13.0067C16.7462 12.7688 16.9517 12.4373 17.0333 12.0668L18.4083 5.87516H4.26659" stroke="white" stroke-width="1.66667" stroke-linecap="round" stroke-linejoin="round"/>
</g>
<defs>
<clipPath id="clip0_10_1320">
<rect width="20" height="20" fill="white"/>
</clipPath>
</defs>
</svg>
