<svg width="1260" height="45" viewBox="0 0 1260 45" fill="none" xmlns="http://www.w3.org/2000/svg">
<path d="M26.6668 14.375L12.0002 29.0417L5.3335 22.375" stroke="#007AFF" stroke-width="1.33333" stroke-linecap="round" stroke-linejoin="round"/>
<path d="M57.4 28.976H80.36V30.936H57.4V28.976ZM59.416 11.392H78.204V13.296H59.416V11.392ZM59.472 22.06H78.148V23.964H59.472V22.06ZM63.336 13.128H65.66V22.284H63.336V13.128ZM71.96 13.128H74.256V22.284H71.96V13.128ZM101.61 8.844H103.906V34.212H101.61V8.844ZM84.6138 26.148H86.7138C88.1511 26.148 89.5325 26.1293 90.8578 26.092C92.2018 26.036 93.5551 25.9427 94.9178 25.812C96.2991 25.6813 97.7365 25.4947 99.2298 25.252L99.4538 27.156C97.1765 27.5293 95.0298 27.7813 93.0138 27.912C90.9978 28.024 88.8978 28.08 86.7138 28.08H84.6138V26.148ZM84.5578 11.196H96.2618V20.24H86.9658V26.876H84.6138V18.364H93.9098V13.1H84.5578V11.196ZM110.344 11.336H121.992V27.828H110.344V11.336ZM119.752 13.184H112.64V25.952H119.752V13.184ZM127.312 8.844H129.636V34.212H127.312V8.844ZM147.133 15.256H153.825V17.16H147.133V15.256ZM141.589 10.3C142.84 10.3 143.951 10.552 144.921 11.056C145.911 11.56 146.685 12.26 147.245 13.156C147.805 14.052 148.085 15.0973 148.085 16.292C148.085 17.468 147.805 18.504 147.245 19.4C146.685 20.296 145.911 20.996 144.921 21.5C143.951 22.004 142.84 22.256 141.589 22.256C140.339 22.256 139.219 22.004 138.229 21.5C137.24 20.996 136.465 20.296 135.905 19.4C135.345 18.504 135.065 17.468 135.065 16.292C135.065 15.0973 135.345 14.052 135.905 13.156C136.465 12.26 137.24 11.56 138.229 11.056C139.219 10.552 140.339 10.3 141.589 10.3ZM141.589 12.26C140.749 12.26 140.003 12.4373 139.349 12.792C138.715 13.128 138.211 13.5947 137.837 14.192C137.464 14.7893 137.277 15.4893 137.277 16.292C137.277 17.076 137.464 17.776 137.837 18.392C138.211 18.9893 138.715 19.456 139.349 19.792C140.003 20.128 140.749 20.296 141.589 20.296C142.411 20.296 143.139 20.128 143.773 19.792C144.427 19.456 144.94 18.9893 145.313 18.392C145.687 17.776 145.873 17.076 145.873 16.292C145.873 15.4893 145.687 14.7893 145.313 14.192C144.94 13.5947 144.427 13.128 143.773 12.792C143.139 12.4373 142.411 12.26 141.589 12.26ZM153.181 8.844H155.505V23.376H153.181V8.844ZM139.069 24.692H155.505V33.848H139.069V24.692ZM153.237 26.568H141.365V31.944H153.237V26.568ZM187.57 8.844H189.81V34.184H187.57V8.844ZM183.426 19.092H188.298V20.996H183.426V19.092ZM177.21 11.896H179.45C179.45 13.5387 179.301 15.1533 179.002 16.74C178.722 18.3267 178.228 19.8573 177.518 21.332C176.809 22.788 175.82 24.16 174.55 25.448C173.3 26.736 171.722 27.912 169.818 28.976L168.474 27.296C170.173 26.3627 171.582 25.336 172.702 24.216C173.841 23.096 174.737 21.9013 175.39 20.632C176.062 19.344 176.529 18 176.79 16.6C177.07 15.2 177.21 13.7533 177.21 12.26V11.896ZM169.734 11.896H178.106V13.8H169.734V11.896ZM181.97 9.46H184.154V32.924H181.97V9.46ZM176.93 17.664V19.4L168.81 20.24L168.474 18.224L176.93 17.664ZM212.516 8.844H214.812V34.212H212.516V8.844ZM195.52 26.148H197.62C199.057 26.148 200.439 26.1293 201.764 26.092C203.108 26.036 204.461 25.9427 205.824 25.812C207.205 25.6813 208.643 25.4947 210.136 25.252L210.36 27.156C208.083 27.5293 205.936 27.7813 203.92 27.912C201.904 28.024 199.804 28.08 197.62 28.08H195.52V26.148ZM195.464 11.196H207.168V20.24H197.872V26.876H195.52V18.364H204.816V13.1H195.464V11.196ZM236.545 11.84H238.757C238.757 13.4827 238.608 15.0973 238.309 16.684C238.029 18.2707 237.534 19.8013 236.825 21.276C236.116 22.732 235.136 24.104 233.885 25.392C232.634 26.68 231.057 27.856 229.153 28.92L227.837 27.268C229.536 26.3347 230.945 25.308 232.065 24.188C233.185 23.068 234.072 21.8733 234.725 20.604C235.397 19.316 235.864 17.972 236.125 16.572C236.405 15.1533 236.545 13.6973 236.545 12.204V11.84ZM229.041 11.84H237.413V13.744H229.041V11.84ZM236.265 17.692V19.456L228.145 20.268L227.809 18.252L236.265 17.692ZM236.769 18.84H242.593V20.744H236.769V18.84ZM246.989 8.844H249.229V34.184H246.989V8.844ZM241.725 9.516H243.909V32.896H241.725V9.516ZM271.851 8.844H274.175V34.212H271.851V8.844ZM260.819 10.804C262.069 10.804 263.171 11.168 264.123 11.896C265.093 12.6053 265.849 13.6227 266.391 14.948C266.951 16.2733 267.231 17.832 267.231 19.624C267.231 21.416 266.951 22.9747 266.391 24.3C265.849 25.6253 265.093 26.652 264.123 27.38C263.171 28.108 262.069 28.472 260.819 28.472C259.568 28.472 258.457 28.108 257.487 27.38C256.516 26.652 255.751 25.6253 255.191 24.3C254.649 22.9747 254.379 21.416 254.379 19.624C254.379 17.832 254.649 16.2733 255.191 14.948C255.751 13.6227 256.516 12.6053 257.487 11.896C258.457 11.168 259.568 10.804 260.819 10.804ZM260.819 12.876C259.979 12.876 259.241 13.156 258.607 13.716C257.991 14.2573 257.505 15.0413 257.151 16.068C256.796 17.076 256.619 18.2613 256.619 19.624C256.619 20.9867 256.796 22.1813 257.151 23.208C257.505 24.216 257.991 25 258.607 25.56C259.241 26.12 259.979 26.4 260.819 26.4C261.64 26.4 262.359 26.12 262.975 25.56C263.609 25 264.104 24.216 264.459 23.208C264.813 22.1813 264.991 20.9867 264.991 19.624C264.991 18.2613 264.813 17.076 264.459 16.068C264.104 15.0413 263.609 14.2573 262.975 13.716C262.359 13.156 261.64 12.876 260.819 12.876ZM289.349 10.58H291.393V12.54C291.393 13.6413 291.197 14.6867 290.805 15.676C290.431 16.6653 289.909 17.5893 289.237 18.448C288.583 19.288 287.818 20.044 286.941 20.716C286.082 21.388 285.158 21.9573 284.169 22.424C283.198 22.8907 282.209 23.2453 281.201 23.488L280.165 21.556C281.042 21.3693 281.919 21.08 282.797 20.688C283.693 20.296 284.533 19.82 285.317 19.26C286.101 18.6813 286.791 18.0373 287.389 17.328C288.005 16.6187 288.481 15.8627 288.817 15.06C289.171 14.2387 289.349 13.3987 289.349 12.54V10.58ZM289.797 10.58H291.785V12.54C291.785 13.3987 291.962 14.2387 292.317 15.06C292.671 15.8627 293.147 16.6187 293.745 17.328C294.361 18.0373 295.061 18.6813 295.845 19.26C296.629 19.82 297.459 20.3053 298.337 20.716C299.233 21.108 300.129 21.388 301.025 21.556L299.961 23.488C298.953 23.2453 297.963 22.8907 296.993 22.424C296.022 21.9573 295.098 21.388 294.221 20.716C293.362 20.044 292.597 19.288 291.925 18.448C291.253 17.5893 290.73 16.6653 290.357 15.676C289.983 14.6867 289.797 13.6413 289.797 12.54V10.58ZM279.213 28.836H302.173V30.768H279.213V28.836Z" fill="#A1A1A6"/>
</svg>
