<svg width="40" height="40" viewBox="0 0 40 40" fill="none" xmlns="http://www.w3.org/2000/svg">
<g clip-path="url(#clip0_10_1320)">
<path d="M13.3332 36.6663C14.2536 36.6663 14.9998 35.9201 14.9998 34.9997C14.9998 34.0792 14.2536 33.333 13.3332 33.333C12.4127 33.333 11.6665 34.0792 11.6665 34.9997C11.6665 35.9201 12.4127 36.6663 13.3332 36.6663Z" stroke="white" stroke-width="1.66667" stroke-linecap="round" stroke-linejoin="round"/>
<path d="M31.6667 36.6663C32.5871 36.6663 33.3333 35.9201 33.3333 34.9997C33.3333 34.0792 32.5871 33.333 31.6667 33.333C30.7462 33.333 30 34.0792 30 34.9997C30 35.9201 30.7462 36.6663 31.6667 36.6663Z" stroke="white" stroke-width="1.66667" stroke-linecap="round" stroke-linejoin="round"/>
<path d="M3.4165 3.41699H6.74984L11.1832 24.117C11.3458 24.8751 11.7676 25.5528 12.376 26.0334C12.9844 26.5141 13.7413 26.7676 14.5165 26.7503H30.8165C31.5751 26.7491 32.3106 26.4891 32.9015 26.0134C33.4925 25.5376 33.9034 24.8745 34.0665 24.1337L36.8165 11.7503H8.53317" stroke="white" stroke-width="1.66667" stroke-linecap="round" stroke-linejoin="round"/>
</g>
<defs>
<clipPath id="clip0_10_1320">
<rect width="20" height="20" fill="white" transform="scale(2)"/>
</clipPath>
</defs>
</svg>
