<svg width="520" height="48" viewBox="0 0 520 48" fill="none" xmlns="http://www.w3.org/2000/svg">
<path d="M1.35227 15.8239V13.6364H16.625V15.8239H10.2216V34H7.75568V15.8239H1.35227ZM24.3011 34.3182C22.8295 34.3182 21.5601 33.9934 20.4929 33.3438C19.4323 32.6875 18.6136 31.7727 18.0369 30.5994C17.4669 29.4195 17.1818 28.0473 17.1818 26.483C17.1818 24.9186 17.4669 23.5398 18.0369 22.3466C18.6136 21.1468 19.4157 20.2121 20.4432 19.5426C21.4773 18.8665 22.6837 18.5284 24.0625 18.5284C24.858 18.5284 25.6435 18.661 26.419 18.9261C27.1946 19.1913 27.9006 19.6222 28.5369 20.2188C29.1733 20.8087 29.6804 21.5909 30.0582 22.5653C30.4361 23.5398 30.625 24.7396 30.625 26.1648V27.1591H18.8523V25.1307H28.2386C28.2386 24.2689 28.0663 23.5 27.7216 22.8239C27.3835 22.1477 26.8996 21.6141 26.2699 21.223C25.6468 20.8319 24.911 20.6364 24.0625 20.6364C23.1278 20.6364 22.3191 20.8684 21.6364 21.3324C20.9602 21.7898 20.4399 22.3864 20.0753 23.1222C19.7107 23.858 19.5284 24.6468 19.5284 25.4886V26.8409C19.5284 27.9943 19.7273 28.9721 20.125 29.7741C20.5294 30.5696 21.0895 31.1761 21.8054 31.5938C22.5213 32.0047 23.3532 32.2102 24.3011 32.2102C24.9176 32.2102 25.4744 32.1241 25.9716 31.9517C26.4754 31.7727 26.9096 31.5076 27.2741 31.1562C27.6387 30.7983 27.9205 30.3542 28.1193 29.8239L30.3864 30.4602C30.1477 31.2292 29.7467 31.9053 29.1832 32.4886C28.6198 33.0653 27.9238 33.5161 27.0952 33.8409C26.2666 34.1591 25.3352 34.3182 24.3011 34.3182ZM40.3991 34.3182C38.9673 34.3182 37.7344 33.9801 36.7003 33.304C35.6662 32.6278 34.8707 31.6965 34.3139 30.5099C33.7571 29.3234 33.4787 27.9678 33.4787 26.4432C33.4787 24.892 33.7637 23.5232 34.3338 22.3366C34.9105 21.1435 35.7126 20.2121 36.7401 19.5426C37.7741 18.8665 38.9806 18.5284 40.3594 18.5284C41.4332 18.5284 42.401 18.7273 43.2628 19.125C44.1245 19.5227 44.8305 20.0795 45.3807 20.7955C45.9309 21.5114 46.2723 22.3466 46.4048 23.3011H44.0582C43.8793 22.6051 43.4815 21.9886 42.8651 21.4517C42.2552 20.9081 41.4332 20.6364 40.3991 20.6364C39.4844 20.6364 38.6823 20.875 37.9929 21.3523C37.3101 21.8229 36.7765 22.4891 36.392 23.3509C36.0142 24.206 35.8253 25.2102 35.8253 26.3636C35.8253 27.5436 36.0109 28.571 36.3821 29.446C36.7599 30.321 37.2902 31.0005 37.973 31.4844C38.6624 31.9683 39.4711 32.2102 40.3991 32.2102C41.009 32.2102 41.5625 32.1042 42.0597 31.892C42.5568 31.6799 42.9777 31.375 43.3224 30.9773C43.6671 30.5795 43.9124 30.1023 44.0582 29.5455H46.4048C46.2723 30.447 45.9441 31.259 45.4205 31.9815C44.9034 32.6974 44.2173 33.2675 43.3622 33.6918C42.5137 34.1094 41.526 34.3182 40.3991 34.3182ZM52.1818 24.8125V34H49.8352V13.6364H52.1818V21.1136H52.3807C52.7386 20.3248 53.2756 19.6984 53.9915 19.2344C54.714 18.7637 55.6752 18.5284 56.875 18.5284C57.9157 18.5284 58.8272 18.7372 59.6094 19.1548C60.3916 19.5658 60.9981 20.1989 61.429 21.054C61.8665 21.9025 62.0852 22.983 62.0852 24.2955V34H59.7386V24.4545C59.7386 23.2415 59.4238 22.3035 58.794 21.6406C58.1709 20.9711 57.3059 20.6364 56.1989 20.6364C55.4299 20.6364 54.7405 20.7988 54.1307 21.1236C53.5275 21.4484 53.0502 21.9223 52.6989 22.5455C52.3542 23.1686 52.1818 23.9242 52.1818 24.8125ZM68.7248 24.8125V34H66.3782V18.7273H68.6452V21.1136H68.8441C69.2021 20.3381 69.7456 19.715 70.4748 19.2443C71.204 18.767 72.1452 18.5284 73.2987 18.5284C74.3327 18.5284 75.2376 18.7405 76.0131 19.1648C76.7887 19.5824 77.3919 20.2188 77.8228 21.0739C78.2537 21.9223 78.4691 22.9962 78.4691 24.2955V34H76.1225V24.4545C76.1225 23.2547 75.811 22.3201 75.1879 21.6506C74.5647 20.9744 73.7096 20.6364 72.6225 20.6364C71.8735 20.6364 71.204 20.7988 70.614 21.1236C70.0307 21.4484 69.57 21.9223 69.2319 22.5455C68.8938 23.1686 68.7248 23.9242 68.7248 24.8125ZM88.9616 34.3182C87.5829 34.3182 86.3731 33.9901 85.3324 33.3338C84.2983 32.6776 83.4896 31.7595 82.9062 30.5795C82.3295 29.3996 82.0412 28.0208 82.0412 26.4432C82.0412 24.8523 82.3295 23.4635 82.9062 22.277C83.4896 21.0904 84.2983 20.169 85.3324 19.5128C86.3731 18.8565 87.5829 18.5284 88.9616 18.5284C90.3404 18.5284 91.5469 18.8565 92.581 19.5128C93.6217 20.169 94.4304 21.0904 95.0071 22.277C95.5904 23.4635 95.8821 24.8523 95.8821 26.4432C95.8821 28.0208 95.5904 29.3996 95.0071 30.5795C94.4304 31.7595 93.6217 32.6776 92.581 33.3338C91.5469 33.9901 90.3404 34.3182 88.9616 34.3182ZM88.9616 32.2102C90.009 32.2102 90.8707 31.9418 91.5469 31.4048C92.223 30.8679 92.7235 30.1619 93.0483 29.2869C93.3731 28.4119 93.5355 27.464 93.5355 26.4432C93.5355 25.4223 93.3731 24.4711 93.0483 23.5895C92.7235 22.7079 92.223 21.9953 91.5469 21.4517C90.8707 20.9081 90.009 20.6364 88.9616 20.6364C87.9143 20.6364 87.0526 20.9081 86.3764 21.4517C85.7003 21.9953 85.1998 22.7079 84.875 23.5895C84.5502 24.4711 84.3878 25.4223 84.3878 26.4432C84.3878 27.464 84.5502 28.4119 84.875 29.2869C85.1998 30.1619 85.7003 30.8679 86.3764 31.4048C87.0526 31.9418 87.9143 32.2102 88.9616 32.2102ZM101.811 13.6364V34H99.4641V13.6364H101.811ZM112.313 34.3182C110.934 34.3182 109.725 33.9901 108.684 33.3338C107.65 32.6776 106.841 31.7595 106.258 30.5795C105.681 29.3996 105.393 28.0208 105.393 26.4432C105.393 24.8523 105.681 23.4635 106.258 22.277C106.841 21.0904 107.65 20.169 108.684 19.5128C109.725 18.8565 110.934 18.5284 112.313 18.5284C113.692 18.5284 114.898 18.8565 115.933 19.5128C116.973 20.169 117.782 21.0904 118.359 22.277C118.942 23.4635 119.234 24.8523 119.234 26.4432C119.234 28.0208 118.942 29.3996 118.359 30.5795C117.782 31.7595 116.973 32.6776 115.933 33.3338C114.898 33.9901 113.692 34.3182 112.313 34.3182ZM112.313 32.2102C113.361 32.2102 114.222 31.9418 114.898 31.4048C115.575 30.8679 116.075 30.1619 116.4 29.2869C116.725 28.4119 116.887 27.464 116.887 26.4432C116.887 25.4223 116.725 24.4711 116.4 23.5895C116.075 22.7079 115.575 21.9953 114.898 21.4517C114.222 20.9081 113.361 20.6364 112.313 20.6364C111.266 20.6364 110.404 20.9081 109.728 21.4517C109.052 21.9953 108.551 22.7079 108.227 23.5895C107.902 24.4711 107.739 25.4223 107.739 26.4432C107.739 27.464 107.902 28.4119 108.227 29.2869C108.551 30.1619 109.052 30.8679 109.728 31.4048C110.404 31.9418 111.266 32.2102 112.313 32.2102ZM128.98 40.0455C127.847 40.0455 126.873 39.8996 126.057 39.608C125.242 39.3229 124.562 38.9451 124.019 38.4744C123.482 38.0104 123.054 37.5133 122.736 36.983L124.605 35.6705C124.818 35.9489 125.086 36.267 125.411 36.625C125.736 36.9896 126.18 37.3045 126.743 37.5696C127.313 37.8414 128.059 37.9773 128.98 37.9773C130.213 37.9773 131.231 37.679 132.033 37.0824C132.835 36.4858 133.236 35.5511 133.236 34.2784V31.1761H133.037C132.865 31.4545 132.62 31.7992 132.301 32.2102C131.99 32.6146 131.539 32.9759 130.949 33.294C130.366 33.6056 129.577 33.7614 128.583 33.7614C127.35 33.7614 126.243 33.4697 125.262 32.8864C124.287 32.303 123.515 31.4545 122.945 30.3409C122.382 29.2273 122.1 27.875 122.1 26.2841C122.1 24.7197 122.375 23.3575 122.925 22.1974C123.475 21.0308 124.241 20.1293 125.222 19.4929C126.203 18.8499 127.337 18.5284 128.623 18.5284C129.617 18.5284 130.406 18.6941 130.989 19.0256C131.579 19.3504 132.03 19.7216 132.341 20.1392C132.659 20.5502 132.905 20.8883 133.077 21.1534H133.316V18.7273H135.583V34.4375C135.583 35.75 135.284 36.8172 134.688 37.6392C134.098 38.4678 133.302 39.0743 132.301 39.4588C131.307 39.8499 130.2 40.0455 128.98 40.0455ZM128.901 31.6534C129.842 31.6534 130.638 31.438 131.287 31.0071C131.937 30.5762 132.431 29.9564 132.769 29.1477C133.107 28.339 133.276 27.3712 133.276 26.2443C133.276 25.1439 133.11 24.1728 132.779 23.331C132.447 22.4891 131.957 21.8295 131.307 21.3523C130.658 20.875 129.855 20.6364 128.901 20.6364C127.907 20.6364 127.078 20.8883 126.415 21.392C125.759 21.8958 125.265 22.572 124.934 23.4205C124.609 24.2689 124.446 25.2102 124.446 26.2443C124.446 27.3049 124.612 28.2429 124.944 29.0582C125.282 29.867 125.779 30.5033 126.435 30.9673C127.098 31.4247 127.92 31.6534 128.901 31.6534ZM141.39 39.7273C140.992 39.7273 140.637 39.6941 140.326 39.6278C140.014 39.5682 139.799 39.5085 139.679 39.4489L140.276 37.3807C140.846 37.5265 141.35 37.5795 141.787 37.5398C142.225 37.5 142.613 37.3045 142.951 36.9531C143.295 36.6084 143.61 36.0483 143.895 35.2727L144.333 34.0795L138.685 18.7273H141.23L145.446 30.8977H145.605L149.821 18.7273H152.367L145.884 36.2273C145.592 37.0161 145.231 37.669 144.8 38.1861C144.369 38.7098 143.869 39.0975 143.299 39.3494C142.735 39.6013 142.099 39.7273 141.39 39.7273Z" fill="#6E6E73"/>
</svg>
