<svg width="28" height="28" viewBox="0 0 28 28" fill="none" xmlns="http://www.w3.org/2000/svg">
<path d="M21.0001 4.6665H7.00008C5.71142 4.6665 4.66675 5.71117 4.66675 6.99984V20.9998C4.66675 22.2885 5.71142 23.3332 7.00008 23.3332H21.0001C22.2887 23.3332 23.3334 22.2885 23.3334 20.9998V6.99984C23.3334 5.71117 22.2887 4.6665 21.0001 4.6665Z" stroke="#007AFF" stroke-width="2.33333" stroke-linecap="round" stroke-linejoin="round"/>
<path d="M16.3333 10.5H11.6667C11.0223 10.5 10.5 11.0223 10.5 11.6667V16.3333C10.5 16.9777 11.0223 17.5 11.6667 17.5H16.3333C16.9777 17.5 17.5 16.9777 17.5 16.3333V11.6667C17.5 11.0223 16.9777 10.5 16.3333 10.5Z" stroke="#007AFF" stroke-width="2.33333" stroke-linecap="round" stroke-linejoin="round"/>
<path d="M17.5 2.3335V4.66683" stroke="#007AFF" stroke-width="2.33333" stroke-linecap="round" stroke-linejoin="round"/>
<path d="M17.5 23.3335V25.6668" stroke="#007AFF" stroke-width="2.33333" stroke-linecap="round" stroke-linejoin="round"/>
<path d="M2.33325 17.5H4.66659" stroke="#007AFF" stroke-width="2.33333" stroke-linecap="round" stroke-linejoin="round"/>
<path d="M2.33325 10.5H4.66659" stroke="#007AFF" stroke-width="2.33333" stroke-linecap="round" stroke-linejoin="round"/>
<path d="M23.3333 17.5H25.6666" stroke="#007AFF" stroke-width="2.33333" stroke-linecap="round" stroke-linejoin="round"/>
<path d="M23.3333 10.5H25.6666" stroke="#007AFF" stroke-width="2.33333" stroke-linecap="round" stroke-linejoin="round"/>
<path d="M10.5 2.3335V4.66683" stroke="#007AFF" stroke-width="2.33333" stroke-linecap="round" stroke-linejoin="round"/>
<path d="M10.5 23.3335V25.6668" stroke="#007AFF" stroke-width="2.33333" stroke-linecap="round" stroke-linejoin="round"/>
</svg>
